<svg width="17" height="16" viewBox="0 0 17 16" fill="none" xmlns="http://www.w3.org/2000/svg">
<path d="M9.04345 12.3627L8.97679 12.4294L8.90345 12.3627C5.73679 9.48936 3.64345 7.58937 3.64345 5.6627C3.64345 4.32937 4.64345 3.32937 5.97679 3.32937C7.00345 3.32937 8.00345 3.99603 8.35679 4.9027H9.59679C9.95012 3.99603 10.9501 3.32937 11.9768 3.32937C13.3101 3.32937 14.3101 4.32937 14.3101 5.6627C14.3101 7.58937 12.2168 9.48936 9.04345 12.3627ZM11.9768 1.99603C10.8168 1.99603 9.70345 2.53603 8.97679 3.3827C8.25012 2.53603 7.13679 1.99603 5.97679 1.99603C3.92345 1.99603 2.31012 3.6027 2.31012 5.6627C2.31012 8.17603 4.57679 10.236 8.01012 13.3494L8.97679 14.2294L9.94345 13.3494C13.3768 10.236 15.6435 8.17603 15.6435 5.6627C15.6435 3.6027 14.0301 1.99603 11.9768 1.99603Z" fill="#323232"/>
</svg>
